<?xml version="1.0" encoding="utf-8"?>
<!-- Generator: Adobe Illustrator 16.0.0, SVG Export Plug-In . SVG Version: 6.00 Build 0)  -->
<!DOCTYPE svg PUBLIC "-//W3C//DTD SVG 1.1//EN" "http://www.w3.org/Graphics/SVG/1.1/DTD/svg11.dtd">
<svg version="1.1" id="Layer_1" xmlns="http://www.w3.org/2000/svg" xmlns:xlink="http://www.w3.org/1999/xlink" x="0px" y="0px"
	 width="747.078px" height="98.946px" viewBox="0 0 747.078 98.946" enable-background="new 0 0 747.078 98.946"
	 xml:space="preserve">
<g>
	<g>
		<path fill="#FFFFFF" d="M223.07,4.711l-25.014,89.393c-0.254,0.875-0.774,1.616-1.559,2.227c-0.785,0.611-1.612,0.916-2.478,0.916
			h-19.665c-0.871,0-1.516-0.305-1.938-0.916c-0.421-0.61-0.497-1.352-0.233-2.227l12.553-42.145
			c0.257-0.869,0.01-1.351-0.735-1.438c-0.742-0.088-1.473,0.217-2.191,0.916l-32.518,35.471c-0.652,0.698-1.46,1.046-2.416,1.046
			c-0.959,0-1.592-0.348-1.892-1.046l-10.525-35.471c-0.208-0.699-0.712-1.004-1.51-0.916c-0.798,0.088-1.334,0.569-1.612,1.438
			L117.69,94.104c-0.287,0.875-0.836,1.616-1.644,2.227c-0.808,0.611-1.648,0.916-2.515,0.916H93.867
			c-0.867,0-1.503-0.305-1.902-0.916c-0.398-0.61-0.448-1.352-0.148-2.227l29.528-89.393c0.277-0.871,0.804-1.612,1.582-2.226
			c0.771-0.609,1.576-0.916,2.402-0.916h17.405c0.828,0,1.618,0.263,2.369,0.785c0.749,0.523,1.227,1.134,1.427,1.831l13.027,36.911
			c0.297,0.699,0.788,1.048,1.471,1.048c0.679,0,1.337-0.349,1.977-1.048l35.062-36.911c0.695-0.697,1.569-1.308,2.63-1.831
			c1.058-0.522,2-0.785,2.831-0.785h17.404c0.827,0,1.447,0.307,1.865,0.916C223.212,3.099,223.305,3.84,223.07,4.711z"/>
	</g>
	<path fill="#FFFFFF" d="M230.027,18.451c0.208-0.745,0.643-1.378,1.306-1.901c0.662-0.52,1.364-0.783,2.102-0.783h16.726
		c0.738,0,1.291,0.264,1.664,0.783c0.37,0.523,0.455,1.156,0.247,1.901l-12.592,45.268c-0.808,2.906-1.009,5.309-0.604,7.21
		c0.406,1.9,1.151,3.391,2.231,4.471c1.082,1.082,2.347,1.845,3.794,2.29c1.447,0.448,2.804,0.673,4.073,0.673
		c1.272,0,2.751-0.225,4.445-0.673c1.697-0.445,3.365-1.208,5.01-2.29c1.645-1.08,3.193-2.57,4.656-4.471
		c1.46-1.901,2.591-4.304,3.397-7.21l12.53-45.268c0.204-0.745,0.637-1.378,1.299-1.901c0.659-0.52,1.36-0.783,2.099-0.783h16.726
		c0.738,0,1.291,0.264,1.664,0.783c0.372,0.523,0.458,1.156,0.254,1.901l-12.48,45.268c-1.457,5.292-3.622,10.1-6.482,14.419
		c-2.864,4.322-6.278,8.013-10.246,11.064c-3.968,3.058-8.378,5.422-13.229,7.1c-4.854,1.676-9.963,2.514-15.318,2.514
		c-5.358,0-9.996-0.838-13.92-2.514c-3.922-1.678-7.02-4.042-9.291-7.1c-2.273-3.052-3.661-6.742-4.162-11.064
		c-0.504-4.319-0.017-9.127,1.463-14.419L230.027,18.451z"/>
	<path fill="#FFFFFF" d="M291.088,94.792l21.01-76.455c0.203-0.742,0.636-1.377,1.301-1.898c0.659-0.521,1.365-0.782,2.106-0.782
		h30.389c11.646,0,20.251,3.428,25.811,10.283c2.996,3.727,4.838,8.159,5.524,13.3c0.686,5.142,0.161,10.917-1.575,17.325
		c-1.738,6.411-4.352,12.204-7.838,17.382c-3.49,5.181-7.75,9.633-12.783,13.356c-4.638,3.354-9.591,5.888-14.86,7.603
		c-5.273,1.715-10.816,2.569-16.629,2.569h-30.511c-0.745,0-1.309-0.26-1.685-0.782C290.969,96.172,290.88,95.538,291.088,94.792z
		 M320.787,76.909h8.375c2.082,0,4.312-0.261,6.69-0.782c2.372-0.521,4.651-1.511,6.833-2.964c2.183-1.453,4.21-3.501,6.085-6.148
		c1.872-2.643,3.388-6.091,4.545-10.337c1.157-4.249,1.516-7.694,1.086-10.342c-0.434-2.641-1.359-4.693-2.784-6.147
		c-1.426-1.451-3.163-2.437-5.21-2.962c-2.049-0.518-4.116-0.781-6.192-0.781h-8.357c-0.745,0-1.447,0.264-2.109,0.781
		c-0.662,0.525-1.094,1.158-1.298,1.902l-9.607,35.097c-0.204,0.745-0.119,1.38,0.261,1.901
		C319.479,76.648,320.043,76.909,320.787,76.909z"/>
	<path fill="#FFFFFF" d="M411.548,18.227c0.474-0.671,1.13-1.249,1.968-1.731c0.834-0.484,1.66-0.729,2.478-0.729h15.583
		c0.74,0,1.398,0.244,1.977,0.729c0.572,0.482,0.919,1.061,1.037,1.731l12.224,76.006c0.119,0.673-0.128,1.381-0.734,2.125
		c-0.61,0.746-1.51,1.117-2.698,1.117h-19.114c-0.82,0-1.521-0.24-2.097-0.727c-0.581-0.482-0.963-1.062-1.157-1.731l-1.217-6.707
		c-0.194-0.67-0.578-1.247-1.156-1.733c-0.58-0.482-1.239-0.727-1.983-0.727H393.09c-0.821,0-1.651,0.244-2.488,0.727
		c-0.837,0.486-1.496,1.063-1.976,1.733l-4.936,6.707c-0.481,0.669-1.141,1.249-1.978,1.731c-0.84,0.486-1.632,0.727-2.376,0.727
		H360.11c-0.369,0-0.741-0.074-1.11-0.223c-0.37-0.148-0.643-0.371-0.825-0.671c-0.18-0.298-0.246-0.672-0.199-1.117
		c0.048-0.447,0.303-0.969,0.76-1.566L411.548,18.227z M405.019,66.849h9.935c0.74,0,1.348-0.242,1.812-0.727
		s0.602-1.062,0.411-1.733c-0.248-1.86-0.554-4.04-0.923-6.538c-0.368-2.494-0.708-4.823-1.021-6.984
		c-0.116-0.672-0.36-1.009-0.733-1.009c-0.372,0-0.797,0.337-1.275,1.009l-9.216,13.522c-0.479,0.672-0.634,1.249-0.469,1.733
		C403.707,66.606,404.198,66.849,405.019,66.849z"/>
	<path fill="#FFFFFF" d="M469.728,64.394c3.893,3.055,7.914,5.454,12.071,7.2c4.157,1.745,8.24,2.615,12.251,2.615
		c3.832,0,6.894-0.544,9.19-1.634c2.294-1.091,3.729-2.728,4.305-4.909c0.299-1.134,0.099-2.028-0.597-2.684
		c-0.698-0.654-1.711-1.198-3.032-1.635c-1.32-0.437-2.907-0.786-4.755-1.047c-1.846-0.263-3.714-0.611-5.599-1.048
		c-1.826-0.347-3.962-0.762-6.401-1.245c-2.445-0.477-4.894-1.177-7.35-2.094c-2.457-0.914-4.827-2.07-7.11-3.466
		c-2.288-1.396-4.183-3.187-5.691-5.367c-1.506-2.181-2.492-4.776-2.95-7.787c-0.463-3.011-0.145-6.564,0.948-10.667
		c1.605-6.023,4.106-10.994,7.502-14.923c3.394-3.925,7.205-7.043,11.426-9.356c4.218-2.312,8.666-3.928,13.343-4.843
		c4.677-0.917,9.1-1.375,13.27-1.375c7.3,0,13.551,1.068,18.769,3.205c5.213,2.141,9.928,5.26,14.151,9.36
		c0.533,0.611,0.73,1.354,0.586,2.226c-0.143,0.872-0.567,1.656-1.271,2.354l-14.007,14.529c-0.709,0.7-1.52,1.135-2.436,1.309
		c-0.917,0.175-1.655,0-2.213-0.522c-3.697-2.791-7.305-4.778-10.819-5.956s-6.885-1.767-10.101-1.767
		c-0.958,0-2.072,0.022-3.344,0.065c-1.275,0.045-2.519,0.218-3.728,0.523c-1.212,0.307-2.28,0.808-3.204,1.505
		c-0.926,0.701-1.552,1.659-1.874,2.881c-0.327,1.221,0.299,2.312,1.871,3.271c1.572,0.961,3.441,1.789,5.606,2.485
		c2.165,0.702,4.281,1.243,6.354,1.639c2.07,0.394,3.397,0.633,3.988,0.72c2.968,0.61,6.172,1.505,9.603,2.684
		c3.431,1.176,6.473,2.922,9.129,5.235c2.651,2.312,4.604,5.321,5.847,9.03c1.242,3.711,1.129,8.356-0.34,13.939
		c-1.38,5.234-3.483,9.75-6.315,13.547c-2.829,3.793-6.201,6.915-10.119,9.356c-3.916,2.444-8.318,4.254-13.209,5.433
		c-4.894,1.178-10.135,1.766-15.718,1.766c-4.537,0-8.67-0.372-12.4-1.112c-3.727-0.74-7.117-1.766-10.174-3.075
		c-3.056-1.31-5.807-2.857-8.252-4.646c-2.444-1.787-4.619-3.686-6.525-5.693c-0.561-0.524-0.76-1.244-0.604-2.16
		c0.159-0.914,0.593-1.722,1.303-2.421l13.938-14.528c0.708-0.697,1.522-1.133,2.438-1.308
		C468.394,63.829,469.145,63.958,469.728,64.394z"/>
	<path fill="#FFFFFF" d="M630.666,71.854c-3.588,4.091-7.337,7.806-11.253,11.146c-3.918,3.341-8.08,6.183-12.479,8.528
		c-4.404,2.343-9.09,4.165-14.049,5.465c-4.964,1.302-10.241,1.953-15.823,1.953c-6.979,0-13.182-1.308-18.604-3.925
		c-5.424-2.618-9.839-6.153-13.252-10.603c-3.405-4.45-5.628-9.686-6.664-15.707c-1.029-6.019-0.65-12.433,1.138-19.239
		c1.793-6.806,4.781-13.217,8.975-19.24c4.19-6.02,9.154-11.255,14.887-15.705c5.729-4.449,11.979-7.984,18.75-10.603
		C589.06,1.308,595.915,0,602.866,0c5.735,0,10.734,0.654,14.998,1.961c4.265,1.31,7.962,3.143,11.088,5.499
		c3.123,2.354,5.753,5.215,7.88,8.573c2.13,3.358,3.935,7.047,5.42,11.059c0.254,0.701,0.149,1.44-0.313,2.226
		c-0.465,0.786-1.134,1.354-2.006,1.703l-20.437,7.327c-0.96,0.351-1.833,0.351-2.611,0c-0.78-0.347-1.297-0.871-1.549-1.571
		c-1.481-4.013-3.726-7.087-6.734-9.225c-3.013-2.138-7.039-3.208-12.081-3.208c-3.307,0-6.601,0.7-9.878,2.1
		c-3.282,1.4-6.311,3.258-9.093,5.578c-2.782,2.317-5.185,5.007-7.202,8.067c-2.021,3.064-3.453,6.214-4.3,9.45
		c-0.873,3.325-1.094,6.495-0.662,9.514c0.427,3.018,1.435,5.667,3.02,7.939c1.581,2.276,3.649,4.114,6.204,5.512
		c2.554,1.399,5.487,2.1,8.803,2.1c4.791,0,9.43-1.156,13.91-3.469c4.479-2.312,8.328-5.301,11.545-8.965
		c0.616-0.698,1.385-1.222,2.303-1.57c0.917-0.349,1.769-0.349,2.549,0l16.658,7.328c0.697,0.349,1.074,0.896,1.146,1.637
		C631.592,70.307,631.307,71.069,630.666,71.854z"/>
	<path fill="#FFFFFF" d="M651.066,64.394c3.921,3.055,7.962,5.454,12.131,7.2c4.17,1.745,8.261,2.615,12.275,2.615
		c3.83,0,6.89-0.544,9.176-1.634c2.286-1.091,3.705-2.728,4.267-4.909c0.289-1.134,0.083-2.028-0.621-2.684
		c-0.704-0.654-1.717-1.198-3.041-1.635c-1.33-0.437-2.917-0.786-4.767-1.047c-1.848-0.263-3.719-0.611-5.608-1.048
		c-1.829-0.347-3.968-0.762-6.408-1.245c-2.45-0.477-4.907-1.177-7.366-2.094c-2.467-0.914-4.85-2.07-7.144-3.466
		c-2.296-1.396-4.207-3.187-5.731-5.367c-1.53-2.181-2.536-4.776-3.018-7.787c-0.483-3.011-0.199-6.564,0.866-10.667
		c1.551-6.023,4.015-10.994,7.376-14.923c3.362-3.925,7.143-7.043,11.346-9.356c4.202-2.312,8.64-3.928,13.309-4.843
		c4.665-0.917,9.081-1.375,13.255-1.375c7.3,0,13.562,1.068,18.795,3.205c5.229,2.141,9.973,5.26,14.229,9.36
		c0.536,0.611,0.738,1.354,0.605,2.226c-0.138,0.872-0.556,1.656-1.253,2.354l-13.888,14.529c-0.704,0.7-1.511,1.135-2.426,1.309
		c-0.913,0.175-1.653,0-2.216-0.522c-3.723-2.791-7.345-4.778-10.868-5.956c-3.524-1.178-6.901-1.767-10.117-1.767
		c-0.959,0-2.073,0.022-3.342,0.065c-1.276,0.045-2.514,0.218-3.724,0.523c-1.212,0.307-2.274,0.808-3.194,1.505
		c-0.918,0.701-1.537,1.659-1.848,2.881c-0.318,1.221,0.317,2.312,1.897,3.271c1.582,0.961,3.455,1.789,5.628,2.485
		c2.17,0.702,4.287,1.243,6.365,1.639c2.07,0.394,3.403,0.633,3.993,0.72c2.975,0.61,6.183,1.505,9.624,2.684
		c3.441,1.176,6.498,2.922,9.171,5.235c2.676,2.312,4.648,5.321,5.922,9.03c1.273,3.711,1.2,8.356-0.225,13.939
		c-1.336,5.234-3.403,9.75-6.204,13.547c-2.799,3.793-6.147,6.915-10.042,9.356c-3.896,2.444-8.286,4.254-13.167,5.433
		c-4.881,1.178-10.114,1.766-15.697,1.766c-4.539,0-8.678-0.372-12.413-1.112s-7.136-1.766-10.2-3.075
		c-3.066-1.31-5.827-2.857-8.289-4.646c-2.457-1.787-4.65-3.686-6.574-5.693c-0.562-0.524-0.766-1.244-0.616-2.16
		c0.149-0.914,0.574-1.722,1.278-2.421l13.819-14.528c0.707-0.697,1.513-1.133,2.429-1.308
		C649.731,63.829,650.481,63.958,651.066,64.394z"/>
	<g>
		<defs>
			<path id="SVGID_1_" d="M85.47,74.341h-9.442c-0.962,0-1.822,0.283-2.583,0.851c-0.758,0.567-1.295,1.242-1.605,2.03
				c-0.926,2.53-1.889,5.17-2.891,7.918c-0.999,2.747-1.921,5.345-2.758,7.786c-0.22,0.875-0.731,1.595-1.532,2.161
				c-0.802,0.567-1.638,0.851-2.509,0.851H44.743c-0.963,0-1.632-0.283-2.007-0.851c-0.38-0.566-0.461-1.286-0.244-2.161
				l5.355-15.704c0.306-0.788,0.25-1.463-0.171-2.03c-0.422-0.567-1.071-0.851-1.945-0.851h-4.067c-0.962,0-1.819,0.283-2.577,0.851
				c-0.758,0.567-1.292,1.242-1.602,2.03L32.15,92.926c-0.216,0.875-0.725,1.595-1.522,2.161c-0.801,0.567-1.638,0.851-2.508,0.851
				H10.845c-0.962,0-1.632-0.283-2.01-0.851c-0.383-0.566-0.465-1.286-0.251-2.161l5.171-15.704c0.306-0.788,0.25-1.463-0.175-2.03
				c-0.425-0.567-1.074-0.851-1.948-0.851H2.451c-0.962,0-1.654-0.283-2.08-0.852c-0.425-0.566-0.483-1.285-0.186-2.159
				l5.475-17.406c0.306-0.787,0.84-1.46,1.595-2.027c0.761-0.568,1.618-0.853,2.583-0.853h9.465c0.874,0,1.694-0.282,2.452-0.851
				c0.758-0.566,1.289-1.288,1.595-2.16l0.668-2.224c0.31-0.785,0.254-1.461-0.171-2.03c-0.425-0.566-1.078-0.851-1.954-0.851
				h-9.208c-0.966,0-1.638-0.283-2.02-0.851c-0.383-0.566-0.419-1.243-0.109-2.028l5.708-16.229c0.306-0.786,0.844-1.46,1.604-2.028
				c0.758-0.566,1.622-0.854,2.591-0.854h9.228c0.876,0,1.72-0.279,2.524-0.85c0.807-0.567,1.318-1.283,1.535-2.157
				c0.841-2.443,1.72-4.995,2.636-7.658c0.92-2.661,1.803-5.124,2.657-7.396c0.309-0.784,0.847-1.46,1.611-2.028
				C41.418,0.283,42.281,0,43.25,0h17.565c0.88,0,1.536,0.283,1.958,0.85c0.425,0.568,0.478,1.244,0.165,2.028l-5.191,15.054
				c-0.221,0.874-0.142,1.59,0.238,2.157c0.379,0.57,1.051,0.85,2.02,0.85h3.822c0.877,0,1.721-0.279,2.528-0.85
				c0.807-0.567,1.367-1.242,1.681-2.028c0.844-2.529,1.73-5.104,2.659-7.722c0.93-2.618,1.82-5.104,2.676-7.461
				c0.313-0.784,0.854-1.46,1.618-2.028C75.755,0.283,76.621,0,77.59,0h17.697c0.88,0,1.533,0.283,1.955,0.85
				c0.422,0.568,0.474,1.244,0.158,2.028l-5.372,15.054c-0.313,0.874-0.277,1.59,0.099,2.157c0.379,0.57,1.051,0.85,2.017,0.85
				h9.755c0.88,0,1.528,0.287,1.951,0.854c0.418,0.568,0.472,1.242,0.158,2.028l-5.721,16.1c-0.31,0.872-0.87,1.592-1.677,2.158
				c-0.808,0.567-1.651,0.851-2.525,0.851h-9.867c-0.965,0-1.829,0.284-2.59,0.851c-0.762,0.569-1.256,1.245-1.48,2.03l-0.686,2.224
				c-0.31,0.872-0.25,1.594,0.168,2.16c0.421,0.568,1.114,0.851,2.08,0.851h9.461c0.877,0,1.526,0.284,1.948,0.853
				c0.422,0.567,0.471,1.24,0.158,2.027l-5.75,17.406c-0.224,0.874-0.734,1.593-1.539,2.159
				C87.184,74.058,86.343,74.341,85.47,74.341z M56.709,42.014h-4.738c-1.052,0-2.067,0.349-3.036,1.046
				c-0.976,0.701-1.658,1.528-2.047,2.485l-0.91,2.75c-0.299,1.048-0.187,1.921,0.33,2.618c0.518,0.699,1.344,1.046,2.484,1.046
				h4.861c1.052,0,2.063-0.347,3.039-1.046c0.973-0.697,1.608-1.57,1.908-2.618l0.912-2.75c0.304-0.957,0.176-1.784-0.385-2.485
				C58.568,42.362,57.761,42.014,56.709,42.014z"/>
		</defs>
		<clipPath id="SVGID_2_">
			<use xlink:href="#SVGID_1_"  overflow="visible"/>
		</clipPath>
		<g transform="matrix(1 0 0 1 0 -7.629395e-06)" clip-path="url(#SVGID_2_)">
			
				<image overflow="visible" width="620" height="555" xlink:href="8428D2848EFF88B9.jpg"  transform="matrix(0.2025 0 0 -0.2025 -3.8677 106.4141)">
			</image>
		</g>
	</g>
</g>
</svg>
